<?xml version="1.0" encoding="utf-8"?>
<!-- Generator: Adobe Illustrator 22.1.0, SVG Export Plug-In . SVG Version: 6.00 Build 0)  -->
<svg version="1.1" id="Слой_1" xmlns="http://www.w3.org/2000/svg" xmlns:xlink="http://www.w3.org/1999/xlink" x="0px" y="0px"
	 viewBox="0 0 134 56" style="enable-background:new 0 0 134 56;" xml:space="preserve">
<style type="text/css">
	.st0{fill-rule:evenodd;clip-rule:evenodd;fill:url(#SVGID_1_);}
	.st1{fill:url(#SVGID_2_);}
	.st2{fill-rule:evenodd;clip-rule:evenodd;fill:#98D532;}
	.st3{fill:url(#SVGID_3_);}
	.st4{fill-rule:evenodd;clip-rule:evenodd;fill:#90BB4C;}
	.st5{fill-rule:evenodd;clip-rule:evenodd;fill:url(#SVGID_4_);}
	.st6{fill:url(#SVGID_5_);}
	.st7{fill-rule:evenodd;clip-rule:evenodd;fill:#CCEF64;}
</style>
<g>
	<linearGradient id="SVGID_1_" gradientUnits="userSpaceOnUse" x1="20.9154" y1="-5.8579" x2="84.578" y2="46.3781">
		<stop  offset="0" style="stop-color:#B7E335"/>
		<stop  offset="0.2096" style="stop-color:#A2D432"/>
		<stop  offset="0.4409" style="stop-color:#85C12D"/>
		<stop  offset="0.5554" style="stop-color:#7FB82B"/>
		<stop  offset="0.7421" style="stop-color:#6EA025"/>
		<stop  offset="0.9766" style="stop-color:#53781C"/>
		<stop  offset="1" style="stop-color:#50741B"/>
	</linearGradient>
	<path class="st0" d="M134.4,55.9c-17.5-25.7-38-24.1-53.8-18.1C46.5,59,17,51,14.4,34.2c-3.8-27.9,67.1-60,112.7,0
		C132.3,41.1,134.2,48.4,134.4,55.9z"/>
	<linearGradient id="SVGID_2_" gradientUnits="userSpaceOnUse" x1="61.268" y1="28.4912" x2="82.9777" y2="25.5058">
		<stop  offset="0" style="stop-color:#D7FF67"/>
		<stop  offset="1" style="stop-color:#91B332"/>
	</linearGradient>
	<path class="st1" d="M25.6,29.6c3.5-1.3,7.1-2.4,10.7-3.3c11.5-3,23.8-4.3,36.9-3.8c2.9,0.1,5.8,0.3,8.7,0.7c4,0.4,8,1,11.8,1.8
		c1.9,0.4,3.8,0.8,5.7,1.2c2,0.5,4,1,6,1.6c0.8,0.2,1.6,0.5,2.4,0.7c-1.1-0.2-2.3-0.4-3.4-0.7c-2-0.4-4-0.8-6-1.1
		c-5.5-1-11.1-1.8-16.8-2.3c-5.6-0.5-11.1-0.7-16.4-0.5c-3.4,0.1-6.6,0.3-9.9,0.5c-1.6,0.1-3.1,0.3-4.7,0.5c-4.1,0.5-8.1,1.2-12,2.1
		c-0.8,0.2-1.5,0.3-2.3,0.5c-1.6,0.4-3.3,0.8-4.9,1.2c-3.2,0.9-6.4,1.9-9.6,2.9c-2.4,0.8-4.7,1.7-7.1,2.5
		C18.4,32.5,21.9,31,25.6,29.6z"/>
	<path class="st2" d="M38.8,43.8c-2.9-1.5-5.4-3.7-7.9-6.1c-1.2-1.2-2.3-2.4-3.5-3.5c-0.7-0.7-1.4-1.5-2.1-2.2l0.4-0.4
		c2,2,3.8,4,5.8,6c1.3,1.3,2.7,2.6,4.1,3.7c1.6,1.3,3.3,2.4,5.1,3.1c1.1,0.4,2.2,0.8,3.5,0.9C42.3,45.3,40.5,44.7,38.8,43.8z"/>
	<path class="st2" d="M21.4,31.1L20.8,31c0.3-2.9,1.3-5.5,3.2-7.6c0.5-0.6,1.1-1.1,1.7-1.6c0.5-0.4,1.1-0.8,1.6-1.2
		c-0.5,0.5-1.1,1-1.6,1.5c-2.2,2.3-3.7,4.9-4.2,8C21.5,30.4,21.4,30.7,21.4,31.1z"/>
	<path class="st2" d="M59.5,37.8c-2.9-1.5-5.4-3.7-7.9-6.1c-1.2-1.2-2.3-2.4-3.5-3.5c-0.7-0.7-1.4-1.5-2.1-2.2l0.4-0.4
		c2,2,3.8,4,5.8,6c1.3,1.3,2.7,2.6,4.1,3.7c1.6,1.3,3.3,2.4,5.1,3.1c1.1,0.4,2.2,0.8,3.5,0.9C62.9,39.2,61.1,38.6,59.5,37.8z"/>
	<path class="st2" d="M74.6,31.9c-1.8-0.9-3.3-2.3-4.8-3.8c-0.7-0.7-1.4-1.4-2.1-2.2c-0.4-0.5-0.9-0.9-1.3-1.4l0.2-0.2
		c1.2,1.2,2.4,2.5,3.6,3.7c0.8,0.8,1.7,1.6,2.5,2.3c1,0.8,2,1.5,3.2,1.9c0.7,0.3,1.4,0.5,2.1,0.6C76.7,32.8,75.6,32.4,74.6,31.9z"/>
	<path class="st2" d="M41.5,26.2L41,26.1c0.3-2.9,1.3-5.5,3.2-7.6c0.5-0.6,1.1-1.1,1.7-1.6c0.5-0.4,1.1-0.8,1.6-1.2
		c-0.5,0.5-1.1,1-1.6,1.5c-2.2,2.3-3.7,4.9-4.2,8C41.6,25.5,41.5,25.8,41.5,26.2z"/>
	<path class="st2" d="M61.1,21.8l-0.5-0.1c0.3-2.9,1.3-5.5,3.2-7.6c0.5-0.6,1.1-1.1,1.7-1.6c0.5-0.4,1.1-0.8,1.6-1.2
		c-0.5,0.5-1.1,1-1.6,1.5c-2.2,2.3-3.7,4.9-4.2,8C61.2,21.1,61.1,21.5,61.1,21.8z"/>
	
		<radialGradient id="SVGID_3_" cx="-35.2595" cy="-3.6423" r="86.9431" gradientTransform="matrix(0.7736 0 0 0.7736 60.1406 33.2554)" gradientUnits="userSpaceOnUse">
		<stop  offset="0" style="stop-color:#B9F447"/>
		<stop  offset="1" style="stop-color:#699423"/>
	</radialGradient>
	<path class="st3" d="M6.9,36.1c6-3.1,12.3-4.4,18.4-6.5c4-1.4,8.1-2.5,12.1-3.5c8.2-2,16.5-3.1,25-3.5c3.7-0.2,7.4-0.2,11.2,0
		c4.9,0.2,9.7,0.6,14.7,1.4c2.5,0.4,5,0.8,7.5,1.3c2.4,0.5,4.9,1,7.4,1.6c1.1,0.3,2.1,0.5,3.2,0.8c0.5,0.1,0.9,0.2,1.4,0.4
		c-0.5-0.1-1.1-0.2-1.6-0.3c-0.9-0.2-1.8-0.4-2.7-0.5c-2.5-0.5-5-0.9-7.5-1.2c-7.5-1.1-14.9-1.8-22.2-1.9
		c-9.3-0.1-18.4,0.5-27.5,2.2c-6.2,1.1-12.3,2.6-18.3,4.6c-1.7,0.5-7.9,3.3-13.8,6.2c-5,2.5-7.1,7-11.6,6.6
		C0.1,43.3-2.3,40.9,6.9,36.1z"/>
	<path class="st4" d="M1.9,43.7c-0.3,0-0.5-0.1-0.7-0.2c-0.2-0.1-0.3-0.2-0.5-0.3c-0.3-0.3-0.4-0.8-0.4-1.3c0-0.2,0-0.3,0.1-0.5
		c0.1-0.5,0.3-0.9,0.6-1.4c0.4-0.5,0.8-0.9,1.3-1.3c0.7-0.5,1.4-0.9,2.2-1.3c1.2-0.6,2.5-1.1,3.9-1.5c1.4-0.5,2.8-0.8,4.2-1.4
		c-0.9,0.6-1.9,1-2.8,1.5c-1.6,0.8-3.2,1.5-4.7,2.3c-0.8,0.4-1.6,0.9-2.3,1.5c-0.5,0.4-0.9,0.8-1.2,1.3c-0.2,0.3-0.3,0.5-0.3,0.8
		c0,0.2-0.1,0.4,0,0.7C1.3,42.9,1.7,43,2,43.1c0.5,0.1,1,0.1,1.6,0.1c1.1-0.1,2.1-0.3,2.9-0.8c-0.9,0.7-1.9,1-3,1.3
		C3,43.7,2.4,43.8,1.9,43.7z"/>
	<linearGradient id="SVGID_4_" gradientUnits="userSpaceOnUse" x1="99.9083" y1="39.4994" x2="117.1192" y2="42.3519">
		<stop  offset="0" style="stop-color:#4B6E1A"/>
		<stop  offset="1" style="stop-color:#77A828"/>
	</linearGradient>
	<path class="st5" d="M110.6,39.5c-6.2-1.9-14.2-6.8-32.9-0.8c-0.7-1.8,19.3-9.9,29-8.7c9.3,1.1,20.2,4.9,25.1,18.3
		c0.3,2.3,1.8,5.1,1.4,7.2C126.8,48.1,119.1,42.2,110.6,39.5z"/>
	<linearGradient id="SVGID_5_" gradientUnits="userSpaceOnUse" x1="99.0785" y1="40.6832" x2="121.6847" y2="42.5553">
		<stop  offset="0" style="stop-color:#5F8A22"/>
		<stop  offset="1" style="stop-color:#8AC52E"/>
	</linearGradient>
	<path class="st6" d="M132.6,52.2c-0.5-1.6-1-3.1-1.7-4.6c-0.6-1.3-1.3-2.6-2.1-3.8c-0.7-1.1-1.5-2.2-2.4-3.2
		c-0.5-0.6-1-1.1-1.5-1.7c-1.8-1.9-3.8-3.5-6-4.7c-1.1-0.7-2.3-1.3-3.5-1.8c-2.8-1.2-5.9-1.9-9.1-2.2c-1.1-0.1-2.3-0.1-3.5-0.1
		c-0.3,0-0.6,0-0.9,0c-0.1,0-0.3,0-0.4,0l-0.2,0L98,30.8c-4.9,1.1-9.7,2.6-14.1,4.7c-1.2,0.6-2.4,1.2-3.5,1.8
		c-0.4,0.2-0.7,0.4-1.1,0.7c-0.2,0.1-0.3,0.2-0.5,0.3c0.4-0.4,0.9-0.7,1.3-1c0.9-0.6,1.8-1.2,2.8-1.8c1.1-0.6,2.3-1.2,3.4-1.7
		c1.5-0.7,3-1.3,4.6-1.8c1.8-0.6,3.5-1.1,5.4-1.6c0.6-0.1,1.1-0.3,1.7-0.4c0.8-0.2,1.6-0.3,2.4-0.5c0.3-0.1,0.7-0.1,1-0.2
		c1.3-0.1,2.8-0.1,4.1,0c6.2,0.3,11.7,2.3,16.3,5.8c0.6,0.4,1.2,0.9,1.7,1.4c1.4,1.2,2.6,2.5,3.7,3.9c1.8,2.3,3.2,4.7,4.3,7.4
		c0.5,1.3,1,2.7,1.3,4.1c0.2,0.8,0.3,1.6,0.4,2.4c0.1,0.4,0.1,0.9,0.1,1.3C133.2,54.4,133,53.3,132.6,52.2z"/>
	<path class="st7" d="M132.4,54.8c-0.6-0.7-1.3-1.4-1.9-2c-1.7-1.7-3.6-3.3-5.5-4.7c-3.1-2.3-6.3-4.2-9.7-5.9
		c-1.5-0.7-3-1.4-4.5-2.1c-0.4-0.2-0.8-0.3-1.3-0.5c-0.1,0-0.2-0.1-0.4-0.1c0,0-0.1,0-0.2-0.1c-0.1,0-0.1,0,0,0
		c-1.5-0.5-2.9-1-4.5-1.4c-2.6-0.7-5.4-1.2-8.2-1.4c-0.9-0.1-1.8-0.1-2.7-0.2c-3.2-0.1-6.3,0.1-9.2,0.7c-1.2,0.3-2.5,0.5-3.7,0.9
		c-0.8,0.2-1.6,0.5-2.4,0.8c0.6-0.3,1.2-0.6,1.8-0.8c0.6-0.3,1.2-0.5,1.9-0.7c3.4-1.1,7.1-1.7,11-1.7c0.7,0,1.4,0,2,0
		c0.9,0,1.7,0.1,2.5,0.2c3.9,0.4,7.5,1.2,11,2.4c3.3,1.2,6.4,2.6,9.4,4.3c1.6,0.9,3.2,1.9,4.8,3c3.1,2.2,6.3,4.8,8.9,7.9
		c0.7,0.8,1.2,1.6,1.8,2.5C133,55.5,132.7,55.1,132.4,54.8z"/>
</g>
</svg>
